<?xml version="1.0" standalone="no"?>
<!DOCTYPE svg PUBLIC "-//W3C//DTD SVG 20010904//EN"
 "http://www.w3.org/TR/2001/REC-SVG-20010904/DTD/svg10.dtd">
<svg version="1.0" xmlns="http://www.w3.org/2000/svg"
 width="680.000000pt" height="597.000000pt" viewBox="0 0 680.000000 597.000000"
 preserveAspectRatio="xMidYMid meet">

<g transform="translate(0.000000,597.000000) scale(0.100000,-0.100000)"
fill="#000000" stroke="none">
<path d="M2203 4635 c-48 -34 -19 -115 40 -115 35 0 57 25 57 64 0 53 -55 81
-97 51z"/>
<path d="M1502 4388 c-54 -59 -52 -11 -52 -1148 l0 -1050 1925 0 1925 0 0
1084 0 1084 -31 26 -31 26 -254 0 -254 0 0 -65 0 -65 224 0 c205 0 224 -1 227
-17 2 -10 2 -187 -1 -393 -3 -206 -6 -349 -8 -317 -1 43 -6 57 -17 57 -8 0
-15 5 -15 10 0 6 7 10 15 10 12 0 15 13 14 63 l-1 62 -8 -49 c-12 -67 -16 -76
-40 -76 -11 0 -20 -4 -20 -10 0 -5 9 -10 20 -10 16 0 20 -7 20 -35 0 -35 0
-35 -44 -35 l-43 0 0 -39 c0 -31 4 -40 24 -47 l24 -9 -26 -29 c-14 -16 -25
-33 -25 -38 0 -4 -9 -8 -21 -8 -19 0 -20 4 -15 43 3 23 2 33 -1 22 -3 -11 -15
-29 -26 -40 l-22 -20 23 -3 c18 -3 22 -10 22 -37 0 -18 -3 -35 -8 -37 -11 -5
-48 -61 -56 -86 -4 -12 -15 -22 -24 -22 -9 -1 -30 -19 -45 -42 -22 -32 -31
-38 -38 -27 -6 9 -9 -8 -9 -48 0 -38 -4 -63 -11 -63 -6 0 -8 9 -4 20 4 11 2
20 -4 20 -6 0 -10 30 -9 79 0 43 -2 83 -6 89 -3 5 -10 187 -16 403 -23 927
-39 856 -42 -188 -3 -813 -3 -822 -24 -850 -48 -65 -15 -63 -799 -65 -613 -2
-662 -3 -360 -8 333 -6 944 -37 955 -48 3 -2 -1 -7 -8 -9 -18 -7 -15 -21 6
-26 12 -3 11 -5 -6 -6 -13 0 -32 -11 -42 -23 l-18 -23 -7 28 c-12 45 -31 33
-27 -18 l4 -45 42 -2 c72 -5 -2072 -13 -2486 -10 l-398 2 0 975 0 975 250 0
251 0 -3 63 -3 62 -271 3 c-270 2 -270 2 -292 -20z m3393 -1288 c-3 -5 -12
-10 -19 -10 -7 0 -17 -12 -23 -27 l-11 -28 -1 32 c-1 17 5 34 12 36 22 9 48 7
42 -3z"/>
<path d="M4910 3305 c0 -14 5 -25 11 -25 6 0 9 -7 5 -15 -6 -17 9 -21 20 -4 3
6 1 16 -5 22 -6 6 -11 19 -11 29 0 10 -4 18 -10 18 -5 0 -10 -11 -10 -25z"/>
<path d="M3020 2756 c0 -76 3 -95 16 -100 24 -9 717 -7 732 2 9 6 12 33 10 98
l-3 89 -377 3 -378 2 0 -94z m200 44 c0 -5 -9 -10 -20 -10 -28 0 -25 -14 5
-30 33 -18 30 -54 -4 -58 -13 -2 -28 2 -35 8 -8 9 -4 10 17 5 36 -9 38 20 2
37 -27 12 -32 27 -13 46 15 15 48 16 48 2z m41 -43 c2 -25 0 -50 -4 -53 -4 -4
-7 19 -7 51 0 69 8 70 11 2z m94 43 c3 -6 -5 -10 -19 -10 -29 0 -42 -29 -26
-60 12 -23 40 -27 40 -5 0 8 -5 15 -12 15 -9 0 -9 3 0 12 16 16 35 -3 30 -28
-6 -31 -59 -25 -77 7 -13 24 -13 29 2 53 18 26 50 35 62 16z m70 -27 l25 -38
0 38 c0 20 5 37 10 37 6 0 10 -25 10 -55 0 -31 -4 -55 -10 -55 -6 0 -21 17
-33 38 l-22 37 -6 -40 c-6 -37 -6 -36 -8 18 0 31 1 57 4 57 2 0 16 -17 30 -37z
m115 -18 c0 -30 -4 -55 -10 -55 -11 0 -14 93 -3 103 12 12 13 8 13 -48z m67
12 l18 -32 6 40 c6 37 6 36 8 -17 1 -64 -10 -74 -29 -28 -16 39 -30 38 -30 -1
0 -17 -4 -28 -10 -24 -5 3 -10 25 -10 49 0 66 16 71 47 13z"/>
<path d="M3178 2513 c7 -3 16 -2 19 1 4 3 -2 6 -13 5 -11 0 -14 -3 -6 -6z"/>
</g>
</svg>
